<svg xmlns="http://www.w3.org/2000/svg" xmlns:xlink="http://www.w3.org/1999/xlink" viewBox="0,0,256,256" width="100px" height="100px" fill-rule="nonzero"><g fill="none" fill-rule="nonzero" stroke="none" stroke-width="1" stroke-linecap="none" stroke-linejoin="none" stroke-miterlimit="10" stroke-dasharray="" stroke-dashoffset="0" font-family="none" font-weight="none" font-size="none" text-anchor="none" style="mix-blend-mode: normal"><g transform="scale(2.56,2.56)"><path d="M86.5,50c0,20.158 -17.122,33.537 -37.28,33.537c-20.158,0 -36.5,-16.342 -36.5,-36.5c0,-20.158 17.122,-33.537 37.28,-33.537c20.158,0 36.5,16.342 36.5,36.5z" fill="#52fafe" stroke="none" stroke-linecap="butt" stroke-linejoin="miter"></path><path d="M61.457,13.873c-6.065,-1.504 -10.273,-1.092 -12.882,0.291c-4.521,2.396 -7.587,8.062 -3.281,13.255c4.306,5.193 11.792,0.467 9.997,-4.456c-1.795,-4.923 -2.838,-5.443 -2.838,-5.443" fill="none" stroke="#231f20" stroke-linecap="round" stroke-linejoin="round"></path><path d="M99.391,37.276c0,0 -6.056,-8.293 -21.515,-16.641c-1.19,-0.643 -2.344,-1.239 -3.461,-1.791" fill="none" stroke="#231f20" stroke-linecap="round" stroke-linejoin="round"></path><path d="M68.451,4.062l-12.994,18.955" fill="none" stroke="#231f20" stroke-linecap="round" stroke-linejoin="round"></path><path d="M69.819,25.536l9.622,-13.931" fill="none" stroke="#231f20" stroke-linecap="round" stroke-linejoin="round"></path><path d="M50.889,29.679l-9.026,13.166l-2.164,14.265l12.737,-6.409l9.765,-14.136" fill="none" stroke="#231f20" stroke-linecap="round" stroke-linejoin="round"></path><ellipse cx="34.5772" cy="65.94374" transform="rotate(-56.337)" rx="2.179" ry="6.674" fill="none" stroke="#231f20" stroke-linecap="round" stroke-linejoin="round"></ellipse><ellipse cx="34.5772" cy="65.94374" transform="rotate(-56.337)" rx="0.638" ry="1.955" fill="#231f20" stroke="none" stroke-linecap="butt" stroke-linejoin="miter"></ellipse><path d="M54.551,47.74c0,0 5.212,1.015 9.851,-1.135c3.709,-1.719 6.257,-8.785 -2.092,-10.035" fill="none" stroke="#231f20" stroke-linecap="round" stroke-linejoin="round"></path><path d="M51.606,51.208c0.104,1.654 1.713,5.008 6.768,5.132c3.749,0.092 6.546,-1.326 8.41,-3.43c1.497,-1.69 2.25,-5.238 -1.428,-6.838" fill="none" stroke="#231f20" stroke-linecap="round" stroke-linejoin="round"></path><path d="M78.04,74.629c-3.024,-7.813 -6.932,-14.449 -12.53,-20.276" fill="none" stroke="#231f20" stroke-linecap="round" stroke-linejoin="round"></path><path d="M73.142,26.251c0,0 -1.253,-0.426 -3.15,-0.725c-2.469,-0.389 -6.029,-0.561 -9.335,0.704c-5.845,2.237 -4.484,9.92 1.228,10.242c5.712,0.322 10.022,2.451 10.022,2.451c0,0 -1.779,8.112 5.879,12.49" fill="none" stroke="#231f20" stroke-linecap="round" stroke-linejoin="round"></path><path d="M41.812,43.014c0,0 2.631,4.841 6.388,6.298" fill="none" stroke="#231f20" stroke-linecap="round" stroke-linejoin="round"></path><path d="M40.025,51.958c0,0 1.394,2.385 4.408,3.241c-3.822,1.633 -4.734,1.91 -4.734,1.91z" fill="#231f20" stroke="none" stroke-linecap="butt" stroke-linejoin="miter"></path><path d="M39.699,57.11c-11.963,8.286 -21.272,21.272 -21.272,21.272c0,0 -4.821,-7.558 -12.797,-12.797" fill="none" stroke="#231f20" stroke-linecap="round" stroke-linejoin="round"></path></g></g></svg>